<?xml version="1.0" encoding="UTF-8" standalone="no"?>
<!DOCTYPE svg PUBLIC "-//W3C//DTD SVG 1.1//EN" "http://www.w3.org/Graphics/SVG/1.1/DTD/svg11.dtd">
<svg width="100%" height="100%" viewBox="0 0 74 74" version="1.1" xmlns="http://www.w3.org/2000/svg" xmlns:xlink="http://www.w3.org/1999/xlink" xml:space="preserve" xmlns:serif="http://www.serif.com/" style="fill-rule:evenodd;clip-rule:evenodd;stroke-linejoin:round;stroke-miterlimit:2;">
    <g transform="matrix(1,0,0,1,-113,-90.5)">
        <g transform="matrix(0.648214,0,0,0.648427,118.885714,63.305727)">
            <path d="M48,43C78.907,43 104,68.093 104,99C104,129.907 78.907,155 48,155C17.093,155 -8,129.907 -8,99C-8,68.093 17.093,43 48,43ZM48,46.868C19.228,46.868 -4.132,70.228 -4.132,99C-4.132,127.772 19.228,151.132 48,151.132C76.772,151.132 100.132,127.772 100.132,99C100.132,70.228 76.772,46.868 48,46.868Z" style="fill:rgb(217,203,191);stroke:rgb(217,203,191);stroke-width:1.55px;"/>
        </g>
        <g transform="matrix(0.352005,0,0,0.352119,112.255099,73.093986)">
            <path d="M107.229,250.462L107.229,58.558" style="fill:none;stroke:rgb(217,203,191);stroke-width:0.86px;stroke-linecap:round;stroke-miterlimit:1.5;"/>
        </g>
        <g transform="matrix(0,-0.352119,0.352005,0,95.611827,165.257102)">
            <path d="M107.229,250.462L107.229,58.558" style="fill:none;stroke:rgb(217,203,191);stroke-width:0.86px;stroke-linecap:round;stroke-miterlimit:1.5;"/>
        </g>
        <g transform="matrix(0.34001,0.091135,-0.091105,0.340121,127.617934,65.175535)">
            <path d="M107.229,250.462L107.229,58.558" style="fill:none;stroke:rgb(217,203,191);stroke-width:0.85px;stroke-linecap:round;stroke-miterlimit:1.5;"/>
        </g>
        <g transform="matrix(0.091105,-0.340121,0.34001,0.091135,87.695952,149.889289)">
            <path d="M107.229,250.462L107.229,58.558" style="fill:none;stroke:rgb(217,203,191);stroke-width:0.86px;stroke-linecap:round;stroke-miterlimit:1.5;"/>
        </g>
        <g transform="matrix(0.304845,0.17606,-0.176002,0.304944,144.506069,61.504386)">
            <path d="M107.229,250.462L107.229,58.558" style="fill:none;stroke:rgb(217,203,191);stroke-width:0.85px;stroke-linecap:round;stroke-miterlimit:1.5;"/>
        </g>
        <g transform="matrix(0.176002,-0.304944,0.304845,0.17606,84.025999,132.995607)">
            <path d="M107.229,250.462L107.229,58.558" style="fill:none;stroke:rgb(217,203,191);stroke-width:0.86px;stroke-linecap:round;stroke-miterlimit:1.5;"/>
        </g>
        <g transform="matrix(0.248905,0.248986,-0.248905,0.248986,161.768607,62.330725)">
            <path d="M107.229,250.462L107.229,58.558" style="fill:none;stroke:rgb(217,203,191);stroke-width:0.85px;stroke-linecap:round;stroke-miterlimit:1.5;"/>
        </g>
        <g transform="matrix(0.248905,-0.248986,0.248905,0.248986,84.852062,115.727473)">
            <path d="M107.229,250.462L107.229,58.558" style="fill:none;stroke:rgb(217,203,191);stroke-width:0.86px;stroke-linecap:round;stroke-miterlimit:1.5;"/>
        </g>
        <g transform="matrix(0.176002,0.304944,-0.304845,0.17606,178.229148,67.598225)">
            <path d="M107.229,250.462L107.229,58.558" style="fill:none;stroke:rgb(217,203,191);stroke-width:0.85px;stroke-linecap:round;stroke-miterlimit:1.5;"/>
        </g>
        <g transform="matrix(0.304845,-0.17606,0.176002,0.304944,90.117892,99.261606)">
            <path d="M107.229,250.462L107.229,58.558" style="fill:none;stroke:rgb(217,203,191);stroke-width:0.86px;stroke-linecap:round;stroke-miterlimit:1.5;"/>
        </g>
        <g transform="matrix(0.091106,0.340121,-0.34001,0.091135,192.765913,76.947925)">
            <path d="M107.229,250.462L107.229,58.558" style="fill:none;stroke:rgb(217,203,191);stroke-width:0.85px;stroke-linecap:round;stroke-miterlimit:1.5;"/>
        </g>
        <g transform="matrix(0.34001,-0.091135,0.091106,0.340121,99.464539,84.720126)">
            <path d="M107.229,250.462L107.229,58.558" style="fill:none;stroke:rgb(217,203,191);stroke-width:0.86px;stroke-linecap:round;stroke-miterlimit:1.5;"/>
        </g>
        <g transform="matrix(0,0.352119,-0.352004,0,204.388254,89.742652)">
            <path d="M107.229,250.462L107.229,58.558" style="fill:none;stroke:rgb(217,203,191);stroke-width:0.86px;stroke-linecap:round;stroke-miterlimit:1.5;"/>
        </g>
        <g transform="matrix(0.352004,0,0,0.352119,112.255158,73.09398)">
            <path d="M107.229,250.462L107.229,58.558" style="fill:none;stroke:rgb(217,203,191);stroke-width:0.86px;stroke-linecap:round;stroke-miterlimit:1.5;"/>
        </g>
        <g transform="matrix(-0.091105,0.340121,-0.34001,-0.091135,212.304125,105.110471)">
            <path d="M107.229,250.462L107.229,58.558" style="fill:none;stroke:rgb(217,203,191);stroke-width:0.86px;stroke-linecap:round;stroke-miterlimit:1.5;"/>
        </g>
        <g transform="matrix(0.34001,0.091135,-0.091105,0.340121,127.617965,65.175537)">
            <path d="M107.229,250.462L107.229,58.558" style="fill:none;stroke:rgb(217,203,191);stroke-width:0.85px;stroke-linecap:round;stroke-miterlimit:1.5;"/>
        </g>
    </g>
</svg>
