<?xml version="1.0" encoding="UTF-8" standalone="no"?>
<!DOCTYPE svg PUBLIC "-//W3C//DTD SVG 1.1//EN" "http://www.w3.org/Graphics/SVG/1.1/DTD/svg11.dtd">
<svg width="100%" height="100%" viewBox="0 0 150 283" version="1.1" xmlns="http://www.w3.org/2000/svg" xmlns:xlink="http://www.w3.org/1999/xlink" xml:space="preserve" xmlns:serif="http://www.serif.com/" style="fill-rule:evenodd;clip-rule:evenodd;stroke-linejoin:round;stroke-miterlimit:2;">
    <g transform="matrix(-0.13919,-0.968732,-0.968732,0.13919,276.754562,260.203311)">
        <path d="M107.318,57.389C163.517,58.533 208.699,101.937 208.699,155.321C208.699,209.417 162.291,253.271 105.046,253.271C47.796,253.271 1.388,209.417 1.388,155.321C1.388,102.738 45.229,59.837 100.251,57.472L100.251,24.78L99.649,24.78C99.297,24.78 98.993,24.476 98.836,24.027C98.762,23.819 98.72,23.578 98.72,23.322C98.72,22.524 99.133,21.878 99.646,21.878L101.37,21.878C101.324,21.583 101.256,21.27 101.162,20.961L101.159,20.952C100.589,19.115 99.403,18.132 97.421,17.853C95.867,17.638 93.997,17.597 92.012,17.546C86.814,17.432 80.992,17.294 78.146,13.778C78.022,13.755 77.898,13.728 77.779,13.7C75.899,13.242 74.483,12.215 73.085,10.986L70.729,8.667C70.729,8.666 70.73,8.666 70.731,8.665L70.723,8.657L70.739,8.641C70.521,8.412 70.326,8.163 70.159,7.897C69.722,7.204 69.471,6.394 69.471,5.526C69.471,2.968 71.667,0.896 74.376,0.896C75.779,0.896 77.044,1.451 77.938,2.345L78.172,2.56C78.513,2.873 78.913,3.335 79.279,3.996C79.477,4.352 79.665,4.767 79.828,5.247C80.337,6.727 81.628,8.269 82.1,9.89C82.22,10.296 82.289,10.708 82.277,11.125C82.542,11.365 82.869,11.574 83.251,11.752C85.296,12.71 88.872,12.789 92.126,12.866C94.175,12.914 96.289,12.962 98.136,13.219C101.39,13.673 103.847,15.333 105.217,17.956C105.495,18.488 105.729,19.059 105.915,19.669C106.153,20.445 106.286,21.198 106.359,21.879L108.043,21.879C108.337,21.879 108.599,22.095 108.767,22.431C108.893,22.677 108.968,22.991 108.968,23.331C108.968,24.133 108.556,24.78 108.047,24.78L107.318,24.78L107.318,36.882C107.321,37.345 107.479,37.956 107.787,38.435C107.994,38.754 108.268,39.014 108.607,39.131C110.224,39.688 115.438,40.355 115.438,40.355C115.438,40.355 115.438,40.357 115.439,40.361C115.44,40.361 115.441,40.361 115.441,40.361C115.441,40.361 115.533,40.783 115.6,41.503C115.606,41.57 115.612,41.64 115.618,41.712C115.611,41.608 115.603,41.508 115.594,41.414C116.318,41.519 117.125,41.643 117.996,41.78C124.477,42.807 134.887,44.778 147.029,48.281C147.024,48.242 147.02,48.202 147.02,48.163L147.02,48.157C147.025,48.029 147.043,47.896 147.089,47.754C147.227,47.318 147.543,47.007 147.836,47.007C147.873,47.007 147.909,47.012 147.946,47.021L149.005,47.32L149.005,41.86C148.891,41.841 148.776,41.823 148.661,41.809C141.518,40.818 130.981,39.391 130.33,37.232C130.308,37.163 130.297,37.093 130.296,37.022L130.296,37.008C130.301,36.558 130.732,36.081 131.699,35.569C134.898,33.875 137.581,33.332 140.336,33.332C142.66,33.332 145.039,33.718 147.836,34.125C153.64,34.97 163.785,38.609 171.446,38.609C171.868,38.609 172.28,38.6 172.688,38.577C179.932,38.165 186.991,36.321 194.216,35.817C194.986,35.762 195.743,35.707 196.467,35.707C196.921,35.707 197.361,35.73 197.787,35.79C201.794,36.349 202.596,40.704 203.531,43.904L203.531,43.895L203.792,44.743C204.026,45.449 204.338,46.398 204.338,47.26C204.338,47.608 204.287,47.943 204.159,48.241C204.09,48.402 203.998,48.548 203.887,48.682C203.015,49.739 200.973,50.015 199.796,50.345C198.585,50.679 197.396,51.008 196.18,51.3C196.049,51.848 196.012,52.442 196.186,53.018L196.183,53.02C196.183,53.02 196.184,53.021 196.184,53.022C196.181,53.022 196.179,53.023 196.177,53.024C196.32,53.51 196.613,53.986 197.121,54.412C198.038,55.182 199.308,55.884 200.656,56.622C203.792,58.346 207.34,60.299 207.193,63.884L207.17,64.283L207.78,64.957C209.087,66.525 209.646,68.221 209.385,69.849C209.037,72.054 207.336,72.902 205.97,73.581C205.397,73.865 204.856,74.136 204.393,74.484C204.228,74.608 204.072,74.736 203.935,74.869C207.906,77.767 211.733,80.902 215.345,84.295C250.97,117.757 256.242,155.894 258.223,170.248L258.419,171.648L259.26,171.546C259.269,171.542 259.283,171.542 259.297,171.542C259.398,171.542 259.501,171.592 259.6,171.682C259.88,171.931 260.13,172.506 260.222,173.195C260.249,173.383 260.259,173.566 260.259,173.736C260.259,174.442 260.057,174.974 259.732,175.015L257.664,175.263L258.045,178.376C258.647,178.349 259.249,178.335 259.856,178.335C270.049,178.335 279.323,182.055 286.24,188.136C293.851,194.823 298.612,204.368 298.612,214.964C298.612,235.186 281.265,251.589 259.865,251.589C243.61,251.589 229.692,242.129 223.936,228.721C222.109,224.47 221.103,219.822 221.103,214.952C221.103,196.946 234.859,181.975 252.98,178.908L252.591,175.874L250.686,176.107L250.649,176.107C250.5,176.107 250.349,176.003 250.212,175.822C249.988,175.531 249.801,175.035 249.721,174.457C249.698,174.269 249.684,174.09 249.684,173.916C249.684,173.21 249.89,172.678 250.211,172.637L251.403,172.494C251.339,172.054 251.275,171.591 251.206,171.106C249.134,156.075 244.27,120.879 210.358,89.029C179.37,59.926 130.043,50.414 114.842,48.094C114.71,48.482 114.559,48.874 114.387,49.268L109.321,48.488L109.317,48.488C109.308,48.484 109.259,48.465 109.182,48.442C108.848,48.342 107.997,48.152 107.524,48.639C107.452,48.715 107.388,48.808 107.337,48.919C107.333,48.93 107.327,48.938 107.322,48.947L107.318,48.956L107.318,57.389ZM245.818,185.704C243.873,186.538 242.026,187.532 240.295,188.682L256.26,209.77C256.438,209.615 256.634,209.474 256.835,209.346L256.799,209.063L245.818,185.704ZM293.511,220.485L265.111,216.035C265.029,216.194 264.942,216.349 264.847,216.5L291.861,226.325C292.594,224.456 293.153,222.5 293.511,220.485ZM257.283,218.429C257.171,218.37 257.063,218.308 256.956,218.245L236.599,238.712C238.16,240.085 239.858,241.326 241.671,242.406L257.283,218.429ZM71.579,116.606L71.597,116.606C71.599,116.606 71.602,116.606 71.604,116.606C71.609,116.606 71.618,116.607 71.627,116.611C72.833,116.611 73.975,116.948 74.953,117.404L47.978,81.776C43.089,85.172 38.543,88.994 34.419,93.182L64.199,119.635C65.279,119.396 66.435,118.929 67.59,118.022C67.613,118.004 67.636,117.985 67.659,117.972C68.956,116.986 70.304,116.61 71.579,116.606ZM81.23,119.784C81.285,119.786 81.337,119.787 81.388,119.788L81.396,119.788L81.616,119.788C81.927,119.788 82.126,119.779 82.163,119.774L82.168,119.774C82.169,119.774 82.17,119.774 82.17,119.774L82.175,119.774L82.161,119.829L87.013,119.829L64.737,72.442C58.967,74.949 53.5,77.983 48.414,81.475L76.083,118.028C76.303,118.165 76.504,118.312 76.692,118.45C76.702,118.454 76.706,118.459 76.711,118.463C76.72,118.472 76.734,118.482 76.743,118.486C76.757,118.5 76.77,118.509 76.784,118.523C76.802,118.537 76.821,118.546 76.839,118.56C76.853,118.573 76.867,118.582 76.88,118.592L76.894,118.605C76.977,118.66 77.055,118.715 77.137,118.766C77.201,118.807 77.265,118.844 77.33,118.88C78.592,119.583 80.22,119.752 81.23,119.784ZM235.255,192.761L255.409,210.661C255.552,210.474 255.707,210.295 255.872,210.125L239.86,188.971C238.206,190.103 236.666,191.373 235.255,192.761ZM102.335,166.258L88.482,245.17C93.864,246.05 99.402,246.509 105.049,246.509C105.603,246.509 106.152,246.504 106.706,246.495L104.052,165.438L103.983,165.438L103.048,165.397L102.555,166.284L102.554,166.284L102.553,166.286L102.335,166.258ZM255.116,211.088L234.892,193.123C233.443,194.59 232.138,196.184 230.996,197.885L254.791,211.716C254.882,211.496 254.992,211.29 255.116,211.088ZM251.721,183.783C249.849,184.214 248.041,184.791 246.31,185.5L256.584,207.362L255.486,198.704L251.721,183.783ZM98.084,164.866L53.947,232.683C58.764,235.534 63.865,237.991 69.209,240.007L99.535,165.543C99.032,165.35 98.546,165.122 98.084,164.866ZM80.331,124.506C79.798,124.562 79.201,124.659 78.613,124.828L78.613,127.236L90.929,138.509L80.331,124.506ZM114.749,151.075C114.955,151.542 115.125,152.023 115.262,152.522L198.82,133.701C197.431,128.315 195.538,123.112 193.191,118.153L114.749,151.075ZM253.546,183.408C253.11,183.485 252.674,183.572 252.243,183.662L254.928,194.309L253.546,183.408ZM154.61,77.06C149.688,74.268 144.48,71.88 139.035,69.946L108.428,145.115C108.927,145.312 109.408,145.541 109.87,145.797L154.61,77.06ZM283.35,191.712L264.552,210.606C264.698,210.792 264.833,210.992 264.952,211.196L287.378,196.034C286.174,194.477 284.824,193.035 283.35,191.712ZM11.045,175.997L92.53,157.639C92.466,157.346 92.411,157.048 92.37,156.745L93.324,156.259L93.306,155.883L8.601,158.363C8.812,164.405 9.647,170.304 11.045,175.997ZM81.401,66.885C75.8,68.219 70.393,70.015 65.223,72.229L87.597,119.827L87.854,119.827L87.854,119.829L87.859,119.829L87.859,120.384L99.483,145.118C99.734,145.022 99.99,144.931 100.25,144.85L100.25,141.604L81.401,66.885ZM265.154,183.243C263.43,182.987 261.663,182.855 259.865,182.855C259.599,182.855 259.338,182.86 259.076,182.864L259.25,188.196L261.319,205.073L265.154,183.243ZM284.623,237.295L263.127,218.199C263.017,218.268 262.902,218.337 262.788,218.396L280.005,241.139C281.663,239.989 283.212,238.701 284.623,237.295ZM263.557,217.9L284.986,236.928C286.429,235.443 287.731,233.83 288.863,232.107L263.91,217.602C263.8,217.707 263.681,217.804 263.557,217.9ZM170.766,88.539L111.503,148.122C111.714,148.319 111.911,148.521 112.103,148.727L113.012,148.324C113.117,148.447 113.222,148.571 113.323,148.699L183.019,101.581C179.379,96.868 175.272,92.504 170.766,88.539ZM202.239,73.646C202.481,73.395 202.754,73.149 203.064,72.916L203.069,72.912C203.692,72.444 204.353,72.119 204.985,71.803C205.712,71.441 206.26,71.155 206.643,70.799C206.989,70.477 207.199,70.097 207.286,69.552C207.46,68.471 207.016,67.467 206.499,66.706C206.332,67.033 206.137,67.337 205.914,67.615C205.523,68.105 205.047,68.517 204.495,68.841C203.596,69.359 202.537,69.621 201.387,69.621C200.186,69.621 198.879,69.332 197.564,68.763C195.088,67.691 193.736,65.587 194.286,63.648C194.379,63.315 194.534,62.983 194.755,62.669C195.481,61.635 196.93,60.8 199.292,60.8C199.59,60.8 199.897,60.814 200.223,60.841C201.701,60.965 203.332,61.558 204.797,62.44C204.045,60.809 201.863,59.611 199.59,58.358C198.21,57.601 196.784,56.817 195.712,55.914C194.249,54.686 193.846,53.191 193.965,51.784C190.252,52.536 186.484,53.068 182.675,53.15C182.322,53.159 181.969,53.164 181.616,53.164C179.846,53.164 178.077,53.054 176.34,52.715C167.47,51 159.187,44.432 151.129,42.309L151.129,47.918L153.137,48.486C153.366,48.55 153.495,48.811 153.495,49.137C153.49,49.265 153.472,49.403 153.426,49.54L153.424,49.547C153.352,49.783 153.225,49.978 153.081,50.111C168.751,55.087 186.53,62.56 202.239,73.646ZM111.118,147.778L170.376,88.199C165.677,84.115 160.552,80.466 155.065,77.317L110.32,146.063C110.563,146.21 110.797,146.366 111.022,146.531L110.665,147.411C110.82,147.53 110.972,147.654 111.118,147.778ZM109.359,165.119C109.229,165.182 109.099,165.244 108.968,165.303L119.195,187.058L126.489,187.058C126.838,187.029 127.199,186.983 127.569,186.911L115.057,170.38L109.359,165.119ZM114.534,150.616L192.975,117.694C190.307,112.138 187.066,106.879 183.33,101.984L113.626,149.108C113.97,149.584 114.277,150.089 114.534,150.616ZM263.617,209.667C263.826,209.831 264.025,210.012 264.211,210.207L282.955,191.363C281.394,190.008 279.704,188.785 277.896,187.722L263.617,209.667ZM272.318,185.072L262.568,209.01C262.781,209.115 262.989,209.229 263.184,209.36L277.44,187.457C275.815,186.533 274.103,185.731 272.318,185.072ZM255.557,217.04L228.708,228.312C229.587,230.161 230.649,231.92 231.866,233.568L255.845,217.354C255.746,217.255 255.647,217.148 255.557,217.04ZM16.559,191.743L93.177,159.583C92.966,159.111 92.792,158.629 92.654,158.13L11.164,176.483C12.493,181.76 14.304,186.866 16.559,191.743ZM254.387,213.236L227.956,203.621C227.21,205.48 226.632,207.423 226.256,209.434L254.36,213.838L254.36,213.756C254.36,213.578 254.369,213.405 254.387,213.236ZM258.874,218.982C258.761,218.959 258.645,218.936 258.533,218.905L247.794,245.287C249.777,245.992 251.846,246.532 253.979,246.88L258.874,218.982ZM254.607,212.198L230.716,198.317C229.727,199.847 228.865,201.464 228.15,203.155L254.465,212.724C254.502,212.546 254.547,212.368 254.607,212.198ZM258.025,218.751C257.937,218.72 257.852,218.689 257.768,218.653L242.133,242.676C243.767,243.614 245.493,244.428 247.291,245.101L258.025,218.751ZM121.389,191.734L143.582,238.945C149.476,236.516 155.063,233.546 160.274,230.104L133.382,194.587C132.707,194.384 132.029,194.054 131.36,193.564L131.328,193.536C131.328,193.536 131.323,193.536 131.323,193.531C131.282,193.503 131.24,193.471 131.199,193.439C129.865,192.408 128.554,191.94 127.344,191.734L121.389,191.734ZM254.397,214.356L226.168,209.929C225.879,211.616 225.728,213.344 225.728,215.109C225.728,215.309 225.733,215.504 225.737,215.699L254.479,214.861C254.443,214.692 254.415,214.524 254.397,214.356ZM293.087,207.729L265.644,213.911C265.639,214.125 265.621,214.33 265.59,214.535L293.952,213.705C293.86,211.658 293.567,209.662 293.087,207.729ZM255.046,216.302L226.677,222.692C227.13,224.468 227.739,226.194 228.494,227.842L255.24,216.616C255.172,216.513 255.105,216.41 255.046,216.302ZM259.723,219.084C259.62,219.079 259.513,219.07 259.409,219.061L254.509,246.963C256.253,247.224 258.034,247.357 259.856,247.357C260.122,247.357 260.388,247.357 260.649,247.347L259.723,219.084ZM22.411,108.202C19.487,112.772 16.976,117.607 14.927,122.653L93.154,151.109C93.324,150.72 93.516,150.345 93.726,149.984L93.103,149.287L22.411,108.202ZM271.815,184.887C269.852,184.197 267.803,183.666 265.684,183.323L261.545,206.905L261.763,208.693C261.87,208.725 261.972,208.76 262.074,208.8L271.815,184.887ZM291.103,202.114L265.561,212.838C265.598,213.019 265.621,213.206 265.634,213.392L292.962,207.237C292.49,205.465 291.868,203.758 291.103,202.114ZM293.97,214.206L265.482,215.045C265.436,215.218 265.382,215.39 265.319,215.554L293.594,219.985C293.851,218.395 293.984,216.767 293.984,215.103C293.984,214.807 293.979,214.507 293.97,214.206ZM262.308,218.625C262.19,218.675 262.067,218.725 261.94,218.766L274.015,244.458C275.976,243.61 277.836,242.598 279.576,241.434L262.308,218.625ZM254.618,215.361L225.751,216.205C225.82,218.257 226.094,220.257 226.556,222.194L254.804,215.832C254.736,215.678 254.673,215.52 254.618,215.361ZM106.952,165.998L126.681,244.207C132.355,242.979 137.846,241.274 143.093,239.143L120.812,191.735L119.184,191.735L119.184,188.274L108.484,165.508C107.99,165.7 107.478,165.865 106.952,165.998ZM104.582,165.42L107.245,246.486C113.721,246.348 120.05,245.606 126.16,244.318L106.431,166.113C106.238,166.154 106.041,166.186 105.844,166.218L105.326,165.356C105.079,165.384 104.833,165.406 104.582,165.42ZM34.054,93.552C29.796,97.924 25.988,102.681 22.688,107.773L91.984,148.047C88.014,143.647 82.456,137.53 77.764,132.374L74.308,129.304L72.008,129.304L72.008,129.302L72.001,129.302L72.001,127.607C71.877,127.614 71.752,127.618 71.627,127.618L71.586,127.618C70.927,127.618 70.25,127.517 69.57,127.286C68.932,127.069 68.293,126.737 67.664,126.263L67.636,126.235C67.618,126.226 67.604,126.217 67.59,126.203C66.825,125.61 66.063,125.203 65.323,124.926C64.784,124.725 64.256,124.592 63.747,124.505L55.588,124.505L55.588,124.502L55.579,124.502L55.579,119.826L62.877,119.826C63.097,119.812 63.322,119.785 63.551,119.753L34.054,93.552ZM87.859,121.628L87.859,124.505L80.988,124.505L93.071,140.467L98.588,145.512L98.993,145.321L87.859,121.628ZM100.033,165.724L69.702,240.196C75.532,242.364 81.637,244.014 87.962,245.082L101.81,166.181C101.201,166.071 100.605,165.92 100.033,165.724ZM114.056,160.879L187.098,203.332C190.142,198.698 192.759,193.79 194.895,188.652L114.771,159.512C114.569,159.987 114.331,160.44 114.056,160.879ZM151.458,187.063L151.458,191.73L151.458,191.735L145.376,191.735L175.047,218.088C179.451,213.702 183.398,208.903 186.817,203.756L115.133,162.094C118.822,166.209 123.494,171.398 127.566,175.919L136.653,183.989C137.063,184.074 137.46,184.192 137.839,184.332C138.789,184.683 139.624,185.176 140.273,185.66C140.296,185.683 140.328,185.702 140.355,185.725C140.364,185.734 140.374,185.738 140.387,185.747L140.474,185.821C140.484,185.821 140.493,185.825 140.497,185.83C140.511,185.844 140.529,185.853 140.543,185.862C140.552,185.871 140.566,185.88 140.575,185.885C140.63,185.922 140.681,185.958 140.736,185.99C142.093,186.834 143.954,186.999 144.994,187.017L145.219,187.017C145.531,187.017 145.732,187.003 145.769,187.003L145.773,187.003L145.772,187.008L145.774,187.008L145.761,187.058L151.458,187.058L151.458,187.063ZM96.85,162.861L38.595,221.434C43.16,225.536 48.151,229.217 53.496,232.416L97.629,164.603C97.423,164.475 97.216,164.342 97.015,164.204L97.295,163.214C97.144,163.099 96.992,162.98 96.85,162.861ZM26.053,207.7L94.314,161.55C93.966,161.073 93.658,160.569 93.393,160.042L16.77,192.202C19.333,197.67 22.454,202.864 26.053,207.7ZM8.588,157.863L93.277,155.384L93.272,155.32L93.341,154.188L92.387,153.775L92.392,153.757L9.766,140.803C8.968,145.528 8.551,150.378 8.551,155.319C8.551,156.167 8.565,157.02 8.588,157.863ZM114.602,154.042C114.63,154.28 114.662,154.513 114.671,154.755L201.492,152.211C201.272,146.028 200.401,140 198.944,134.188L115.382,153.011C115.432,153.221 115.469,153.431 115.501,153.641L115.499,153.642C115.499,153.643 115.499,153.643 115.499,153.644L114.602,154.042ZM261.432,218.92C261.337,218.942 261.241,218.96 261.151,218.979L268.071,246.416C269.958,245.976 271.78,245.385 273.53,244.666L261.432,218.92ZM291.672,226.795L264.542,216.929C264.459,217.034 264.373,217.134 264.282,217.235L289.139,231.679C290.124,230.131 290.971,228.5 291.672,226.795ZM287.694,196.443L265.194,211.66C265.289,211.878 265.376,212.101 265.444,212.333L290.885,201.654C289.992,199.818 288.921,198.073 287.694,196.443ZM115.45,157.37C115.335,157.947 115.175,158.505 114.969,159.041L195.088,188.182C197.375,182.585 199.099,176.728 200.185,170.655L115.45,157.37ZM130.715,179.405C132.287,181.15 133.663,182.677 134.726,183.854C134.877,183.84 135.024,183.836 135.171,183.836L135.253,183.836C135.411,183.836 135.57,183.845 135.723,183.854L130.715,179.405ZM114.698,155.256L114.698,155.319L114.662,155.988L115.602,156.35C115.579,156.524 115.56,156.699 115.537,156.873L200.273,170.157C201.112,165.326 201.547,160.37 201.547,155.319C201.547,154.448 201.533,153.578 201.506,152.712L114.698,155.256ZM260.618,219.057C260.501,219.07 260.378,219.079 260.261,219.084L261.187,247.333C263.367,247.255 265.492,246.98 267.548,246.536L260.618,219.057ZM174.678,218.452L144.597,191.735L143.946,191.735C142.818,191.85 141.403,192.159 140.389,192.941C139.194,193.862 137.304,194.844 135.222,194.853L135.19,194.853C134.857,194.852 134.516,194.825 134.177,194.771L160.713,229.814C165.745,226.449 170.42,222.645 174.678,218.452ZM14.734,123.128C12.538,128.624 10.893,134.366 9.853,140.306L92.479,153.26C92.594,152.683 92.759,152.119 92.965,151.58L14.734,123.128ZM138.537,69.771C132.629,67.704 126.456,66.169 120.066,65.225L107.318,137.863L107.318,144.739C107.524,144.798 107.729,144.862 107.93,144.931L138.537,69.771ZM100.25,64.239C93.967,64.528 87.835,65.39 81.923,66.76L100.25,139.418L100.25,64.239ZM117.234,172.39L128.133,186.782C129.111,186.524 130.141,186.067 131.179,185.264L117.234,172.39ZM196.332,64.153L196.33,64.161C196.103,64.986 196.759,66.204 198.45,66.936C199.486,67.385 200.495,67.61 201.389,67.61C202.145,67.61 202.824,67.45 203.383,67.129C204.137,66.69 204.65,65.969 204.903,65.009C203.454,63.831 201.598,62.974 200.025,62.841C199.769,62.818 199.517,62.809 199.278,62.809C197.683,62.809 196.58,63.301 196.332,64.153ZM232.178,233.982C232.206,234.019 232.234,234.056 232.263,234.092C233.445,235.621 234.763,237.053 236.207,238.363L256.514,217.941C256.416,217.869 256.322,217.797 256.232,217.717L232.178,233.982ZM94.621,161.959L26.355,208.108C29.871,212.779 33.845,217.129 38.209,221.089L96.46,162.518C96.18,162.257 95.914,161.982 95.667,161.693L94.649,161.996L94.621,161.959ZM119.541,65.146C115.54,64.578 111.466,64.244 107.318,64.152L107.318,134.787L119.541,65.146Z" style="fill:rgb(38,25,5);"/>
    </g>
</svg>
