<?xml version="1.0" encoding="UTF-8" standalone="no"?>
<!DOCTYPE svg PUBLIC "-//W3C//DTD SVG 1.1//EN" "http://www.w3.org/Graphics/SVG/1.1/DTD/svg11.dtd">
<svg width="100%" height="100%" viewBox="0 0 300 255" version="1.1" xmlns="http://www.w3.org/2000/svg" xmlns:xlink="http://www.w3.org/1999/xlink" xml:space="preserve" xmlns:serif="http://www.serif.com/" style="fill-rule:evenodd;clip-rule:evenodd;stroke-linejoin:round;stroke-miterlimit:2;">
    <g transform="matrix(4.584015,0,0,4.584015,-1061.156269,-50.815877)">
        <path d="M248.063,39.555L247.87,39.384L247.199,39.384L247.199,39.014C247.171,39.015 247.144,39.016 247.116,39.016L247.107,39.016C246.829,39.016 246.536,38.934 246.253,38.721L246.247,38.715C246.243,38.713 246.24,38.711 246.237,38.708C245.948,38.484 245.661,38.382 245.397,38.337L243.617,38.337L243.617,37.317L245.209,37.317C245.257,37.314 245.446,37.282 245.496,37.275C245.732,37.223 245.985,37.121 246.237,36.923C246.242,36.919 246.247,36.915 246.252,36.912C246.535,36.697 246.829,36.615 247.107,36.614L247.111,36.614C247.112,36.614 247.114,36.614 247.116,36.615C247.38,36.615 247.63,36.689 247.844,36.789C247.892,36.819 248.18,36.986 248.221,37.016C248.223,37.017 248.224,37.018 248.225,37.019C248.227,37.021 248.23,37.023 248.232,37.024C248.235,37.027 248.238,37.029 248.241,37.032C248.245,37.035 248.249,37.037 248.253,37.04C248.256,37.043 248.259,37.045 248.262,37.047L248.265,37.05C248.283,37.062 248.3,37.074 248.318,37.085C248.332,37.094 248.346,37.102 248.36,37.11C248.651,37.272 249.031,37.304 249.247,37.308L249.295,37.308C249.364,37.308 249.408,37.306 249.416,37.305L249.417,37.305L249.414,37.317L250.657,37.317L250.657,38.337L249.016,38.337C248.899,38.349 248.769,38.37 248.64,38.407L248.64,38.933L251.331,41.396L252.998,42.92C253.027,42.906 253.057,42.892 253.087,42.878C253.122,42.863 253.157,42.848 253.193,42.834C253.248,42.813 253.304,42.793 253.361,42.775L253.361,16.582L253.229,16.582C253.117,16.582 253.027,16.441 253.027,16.266C253.027,16.092 253.117,15.951 253.229,15.951L253.605,15.951C253.595,15.886 253.58,15.817 253.559,15.749C253.435,15.347 253.176,15.132 252.743,15.071C252.404,15.024 251.996,15.015 251.563,15.004C250.429,14.979 249.159,14.949 248.538,14.182C248.511,14.177 248.484,14.171 248.458,14.165C248.048,14.065 247.739,13.841 247.434,13.573L246.92,13.067C246.921,13.066 246.922,13.065 246.924,13.063C246.752,12.884 246.647,12.646 246.647,12.384C246.647,11.826 247.126,11.374 247.717,11.374C248.023,11.374 248.299,11.495 248.494,11.69C248.511,11.705 248.528,11.721 248.545,11.737C248.659,11.842 248.804,12.023 248.905,12.321C249.016,12.644 249.298,12.98 249.401,13.334C249.427,13.423 249.442,13.513 249.439,13.604C249.497,13.657 249.569,13.703 249.653,13.742C250.099,13.951 250.879,13.968 251.589,13.985C252.036,13.996 252.497,14.006 252.9,14.062C253.753,14.181 254.355,14.68 254.596,15.467C254.648,15.637 254.677,15.802 254.693,15.951L255.061,15.951C255.172,15.951 255.262,16.092 255.262,16.266C255.262,16.441 255.172,16.582 255.061,16.582L254.902,16.582L254.902,19.222C254.903,19.391 254.999,19.65 255.184,19.714C255.537,19.835 256.674,19.981 256.674,19.981C256.674,19.981 256.694,20.073 256.709,20.23C256.711,20.261 256.714,20.294 256.716,20.33C256.714,20.287 256.711,20.248 256.708,20.212C258.04,20.406 260.559,20.843 263.565,21.71C263.564,21.701 263.563,21.692 263.563,21.683C263.564,21.655 263.568,21.626 263.578,21.595C263.608,21.5 263.677,21.432 263.741,21.432C263.749,21.432 263.757,21.433 263.765,21.435L263.996,21.5L263.996,20.308C263.971,20.304 263.946,20.3 263.921,20.297C262.314,20.074 259.92,19.75 259.915,19.254L259.915,19.251C259.916,19.153 260.01,19.049 260.221,18.937C260.919,18.568 261.504,18.449 262.105,18.449C262.612,18.449 263.131,18.533 263.741,18.622C265.007,18.806 267.22,19.6 268.891,19.6C268.983,19.6 269.073,19.598 269.162,19.593C270.742,19.503 272.282,19.101 273.858,18.991C274.026,18.979 274.191,18.967 274.349,18.967C274.448,18.967 274.544,18.972 274.637,18.985C275.511,19.107 275.686,20.057 275.89,20.755L275.89,20.753L275.947,20.938C275.998,21.092 276.066,21.299 276.066,21.487C276.066,21.563 276.055,21.636 276.027,21.701C275.893,22.012 275.365,22.078 275.076,22.159C274.812,22.232 274.552,22.304 274.287,22.368C274.258,22.487 274.25,22.617 274.288,22.743C274.287,22.743 274.286,22.744 274.286,22.744C274.317,22.85 274.381,22.954 274.492,23.047C274.692,23.215 274.969,23.368 275.263,23.529C275.947,23.905 276.721,24.331 276.689,25.113L276.684,25.2L276.817,25.347C277.102,25.689 277.224,26.059 277.167,26.414C277.091,26.895 276.72,27.08 276.422,27.228C276.297,27.29 276.179,27.349 276.078,27.425C276.042,27.452 276.008,27.48 275.978,27.509C276.844,28.141 277.679,28.825 278.467,29.565C286.238,36.864 287.388,45.183 287.82,48.314C287.835,48.422 287.849,48.524 287.863,48.621L287.7,48.641L288.048,48.599C288.05,48.598 288.053,48.598 288.056,48.598C288.14,48.598 288.229,48.755 288.256,48.957C288.262,48.998 288.264,49.038 288.264,49.075C288.264,49.229 288.22,49.345 288.149,49.354L287.698,49.408L288.592,56.702C288.616,56.709 288.639,56.717 288.662,56.726C288.698,56.739 288.734,56.754 288.768,56.771C288.815,56.794 288.861,56.819 288.904,56.848C288.936,56.868 288.967,56.89 288.997,56.914C289.043,56.95 289.087,56.99 289.128,57.033C289.154,57.06 289.178,57.089 289.201,57.119C289.233,57.16 289.263,57.204 289.289,57.249C289.308,57.282 289.325,57.315 289.341,57.349C289.362,57.397 289.381,57.446 289.396,57.497C289.406,57.533 289.415,57.569 289.421,57.606C289.429,57.646 289.434,57.687 289.437,57.728C289.439,57.754 289.44,57.78 289.44,57.807C289.44,57.818 289.44,57.829 289.439,57.84C289.438,57.887 289.434,57.932 289.427,57.977C289.421,58.014 289.413,58.051 289.404,58.087C289.394,58.125 289.382,58.163 289.368,58.199C289.355,58.235 289.339,58.269 289.323,58.303C289.305,58.338 289.286,58.372 289.265,58.405C289.244,58.437 289.222,58.468 289.199,58.498C289.181,58.521 289.162,58.543 289.142,58.565C289.117,58.593 289.089,58.62 289.061,58.645C289.037,58.668 289.011,58.689 288.984,58.71C288.954,58.733 288.922,58.755 288.89,58.775C288.866,58.79 288.841,58.805 288.816,58.818C288.782,58.836 288.748,58.853 288.712,58.868C288.686,58.879 288.659,58.89 288.631,58.899C288.595,58.911 288.558,58.922 288.521,58.932C288.5,58.937 288.479,58.941 288.459,58.945C288.421,58.953 288.383,58.958 288.344,58.962C288.318,58.965 288.291,58.967 288.265,58.968C288.247,58.969 288.228,58.969 288.209,58.969C288.189,58.969 288.169,58.969 288.149,58.968C288.126,58.967 288.102,58.965 288.079,58.963C288.04,58.959 288.002,58.953 287.964,58.946C287.939,58.941 287.913,58.936 287.888,58.929C287.851,58.92 287.815,58.909 287.779,58.896C287.759,58.889 287.74,58.882 287.721,58.874C287.685,58.859 287.651,58.843 287.617,58.826C287.592,58.813 287.568,58.799 287.544,58.785C287.511,58.765 287.48,58.743 287.449,58.72C287.427,58.704 287.406,58.688 287.386,58.67C287.357,58.645 287.329,58.62 287.303,58.592C287.281,58.57 287.259,58.546 287.239,58.522C287.215,58.492 287.192,58.462 287.171,58.431C287.156,58.408 287.141,58.385 287.128,58.361C287.109,58.328 287.091,58.294 287.076,58.26C287.061,58.226 287.047,58.191 287.035,58.156C287.024,58.121 287.014,58.084 287.005,58.048C286.997,58.011 286.991,57.974 286.987,57.937C286.982,57.9 286.98,57.862 286.979,57.825L286.979,57.807C286.979,57.768 286.981,57.73 286.985,57.693C286.989,57.655 286.994,57.618 287.002,57.582C287.01,57.543 287.02,57.504 287.033,57.467C287.044,57.431 287.057,57.396 287.073,57.362C287.093,57.314 287.117,57.269 287.144,57.225C287.164,57.193 287.185,57.162 287.208,57.132C287.239,57.091 287.273,57.052 287.309,57.015C287.335,56.988 287.363,56.962 287.393,56.938C287.432,56.904 287.475,56.873 287.519,56.845L286.775,50.978L286.678,50.205L286.593,49.541L286.176,49.592L286.168,49.592C286.083,49.592 285.995,49.436 285.967,49.234C285.962,49.193 285.959,49.154 285.959,49.116C285.959,48.962 286.004,48.846 286.074,48.837L286.334,48.806C286.32,48.71 286.306,48.609 286.291,48.503C285.839,45.224 284.778,37.546 277.38,30.598C270.62,24.249 259.859,22.174 256.543,21.668C256.515,21.753 256.482,21.838 256.444,21.924L255.339,21.754L255.338,21.754C255.336,21.753 255.325,21.749 255.309,21.744C255.236,21.722 255.05,21.681 254.947,21.787C254.931,21.804 254.917,21.824 254.906,21.848C254.905,21.85 254.902,21.856 254.902,21.856L254.902,42.751C254.947,42.764 254.992,42.778 255.036,42.793C255.072,42.806 255.108,42.819 255.144,42.833C255.253,42.876 255.358,42.926 255.459,42.982C255.493,43 255.525,43.02 255.557,43.04C255.61,43.072 255.661,43.106 255.71,43.142L255.632,43.334C255.666,43.36 255.699,43.387 255.731,43.414C255.76,43.439 255.788,43.464 255.815,43.489C255.861,43.532 255.904,43.576 255.946,43.621L256.144,43.533C256.167,43.56 256.19,43.587 256.212,43.615C256.234,43.644 256.256,43.674 256.278,43.704C256.353,43.808 256.42,43.918 256.476,44.033C256.493,44.066 256.509,44.099 256.523,44.133C256.568,44.235 256.605,44.34 256.635,44.449C256.644,44.484 256.653,44.519 256.661,44.555C256.672,44.601 256.68,44.647 256.687,44.693L256.491,44.78C256.497,44.832 256.504,44.883 256.506,44.936C256.51,44.972 256.51,45.008 256.512,45.045L256.512,45.059L256.504,45.205L256.709,45.284C256.704,45.322 256.7,45.36 256.695,45.398C256.689,45.435 256.683,45.471 256.676,45.506C256.651,45.632 256.616,45.754 256.571,45.871C256.558,45.906 256.544,45.94 256.528,45.973C256.484,46.077 256.432,46.176 256.372,46.272C256.372,46.273 256.372,46.273 256.371,46.274C256.446,46.358 256.525,46.445 256.605,46.535C257.41,47.433 258.43,48.566 259.319,49.553C259.558,49.817 259.788,50.072 260.001,50.308C260.346,50.691 260.648,51.026 260.881,51.284C260.914,51.281 260.946,51.28 260.978,51.28L260.996,51.28C261.031,51.28 261.066,51.282 261.1,51.284C261.121,51.286 261.141,51.288 261.161,51.29C261.301,51.307 261.435,51.342 261.56,51.388C261.767,51.465 261.949,51.572 262.091,51.678C262.096,51.683 262.103,51.687 262.109,51.692C262.111,51.694 262.113,51.695 262.116,51.697L262.135,51.713C262.137,51.713 262.139,51.714 262.14,51.715C262.143,51.718 262.147,51.72 262.15,51.722C262.152,51.724 262.155,51.726 262.157,51.727C262.169,51.735 262.18,51.743 262.192,51.75C262.488,51.934 262.894,51.97 263.121,51.974L263.17,51.974C263.238,51.974 263.282,51.971 263.29,51.971L263.291,51.971L263.288,51.983L264.531,51.983L264.531,53.002L262.892,53.002C262.646,53.027 262.337,53.094 262.116,53.265C261.855,53.466 261.443,53.68 260.989,53.682L260.982,53.682C260.909,53.682 260.834,53.676 260.76,53.664C260.703,53.655 260.646,53.642 260.588,53.624C260.441,53.58 260.293,53.508 260.147,53.401C260.144,53.399 260.142,53.397 260.14,53.395C260.14,53.395 260.139,53.395 260.139,53.394C260.13,53.388 260.121,53.381 260.112,53.374C259.821,53.149 259.535,53.047 259.271,53.002L257.491,53.002L257.491,51.983L259.084,51.983C259.395,51.957 259.749,51.869 260.108,51.591L257.062,48.779L256.591,48.344L255.348,47.196C255.319,47.21 255.291,47.224 255.262,47.237C255.228,47.252 255.192,47.267 255.157,47.281C255.049,47.323 254.937,47.359 254.822,47.388C254.785,47.397 254.747,47.405 254.709,47.413C254.667,47.422 254.624,47.429 254.581,47.436L254.468,47.248C254.414,47.254 254.36,47.259 254.305,47.262C254.267,47.264 254.229,47.266 254.19,47.266L254.175,47.266L253.971,47.257L253.863,47.451L253.815,47.445C253.777,47.44 253.739,47.434 253.701,47.428C253.568,47.404 253.438,47.371 253.313,47.328C253.276,47.316 253.24,47.303 253.205,47.289C253.095,47.247 252.989,47.197 252.888,47.141C252.855,47.123 252.822,47.104 252.789,47.084C252.744,47.056 252.699,47.027 252.655,46.997L252.716,46.781C252.683,46.756 252.65,46.73 252.619,46.704C252.59,46.679 252.562,46.654 252.534,46.629C252.473,46.572 252.415,46.512 252.361,46.449L252.139,46.515C252.137,46.512 252.135,46.509 252.133,46.507C252.11,46.478 252.087,46.448 252.066,46.418C251.99,46.314 251.923,46.204 251.865,46.089C251.848,46.056 251.832,46.022 251.818,45.989C251.772,45.886 251.734,45.781 251.704,45.672C251.694,45.637 251.685,45.601 251.677,45.565C251.663,45.501 251.651,45.436 251.642,45.37L251.85,45.264L251.846,45.182L251.84,45.073L251.839,45.059L251.854,44.812L251.646,44.722C251.647,44.72 251.647,44.719 251.647,44.718C251.652,44.682 251.659,44.646 251.666,44.61C251.691,44.484 251.727,44.361 251.772,44.243C251.785,44.209 251.799,44.175 251.813,44.141C251.85,44.056 251.892,43.974 251.938,43.895L251.559,43.474C250.693,42.514 249.087,40.68 248.063,39.555ZM275.795,27.376C275.846,27.413 275.896,27.449 275.947,27.486L275.946,27.485C275.896,27.449 275.846,27.412 275.795,27.376ZM274.963,24.878C274.614,24.878 274.373,24.986 274.32,25.173C274.269,25.353 274.412,25.62 274.782,25.78C275.008,25.878 275.228,25.927 275.423,25.927C275.588,25.927 275.736,25.892 275.858,25.822C276.023,25.726 276.135,25.568 276.19,25.358C275.874,25.101 275.469,24.914 275.126,24.885C275.07,24.88 275.015,24.878 274.963,24.878ZM275.608,27.243C275.661,27.188 275.721,27.134 275.789,27.083C275.925,26.981 276.069,26.91 276.207,26.841C276.51,26.69 276.67,26.6 276.71,26.349C276.748,26.113 276.651,25.894 276.538,25.728C276.438,25.925 276.29,26.083 276.101,26.194C275.905,26.307 275.674,26.364 275.423,26.364C275.161,26.364 274.876,26.301 274.589,26.177C274.049,25.943 273.754,25.484 273.874,25.061C273.961,24.75 274.294,24.441 274.965,24.441C275.03,24.441 275.097,24.444 275.168,24.45C275.491,24.477 275.848,24.607 276.168,24.8C276.005,24.443 275.528,24.181 275.031,23.907C274.73,23.742 274.419,23.571 274.185,23.374C273.866,23.106 273.778,22.78 273.804,22.473C272.994,22.637 272.172,22.753 271.341,22.771C271.264,22.773 271.187,22.774 271.11,22.774C270.724,22.774 270.338,22.75 269.959,22.676C268.024,22.302 266.217,20.869 264.459,20.406L264.459,21.631L264.897,21.755C264.947,21.769 264.975,21.826 264.975,21.897C264.974,21.925 264.97,21.955 264.96,21.985C264.944,22.037 264.916,22.08 264.884,22.109C264.863,22.103 264.842,22.096 264.821,22.089C264.677,22.044 264.535,22 264.393,21.956C267.927,23.039 272.016,24.708 275.608,27.243ZM288.114,49.222C288.148,49.214 288.17,49.19 288.17,49.155C288.17,49.145 288.168,49.135 288.165,49.124C288.181,49.177 288.157,49.212 288.114,49.222Z" style="fill:rgb(217,203,191);"/>
    </g>
</svg>
