<?xml version="1.0" encoding="UTF-8" standalone="no"?>
<!DOCTYPE svg PUBLIC "-//W3C//DTD SVG 1.1//EN" "http://www.w3.org/Graphics/SVG/1.1/DTD/svg11.dtd">
<svg width="100%" height="100%" viewBox="0 0 2250 300" version="1.1" xmlns="http://www.w3.org/2000/svg" xmlns:xlink="http://www.w3.org/1999/xlink" xml:space="preserve" xmlns:serif="http://www.serif.com/" style="fill-rule:evenodd;clip-rule:evenodd;stroke-linejoin:round;stroke-miterlimit:2;">
    <g>
        <path d="M1663.471,272.767L1663.471,85.625L1686.534,85.625L1686.534,146.954C1689.851,143.471 1693.213,140.975 1696.617,139.487C1700.021,138.008 1704.35,137.266 1709.6,137.266C1721.996,137.266 1730.992,141.812 1736.579,150.887C1741.3,159.104 1743.662,171.158 1743.662,187.058L1743.662,220.883C1743.662,241.141 1740.424,255.558 1733.958,264.125C1728.37,271.633 1719.82,275.392 1708.287,275.392C1702.516,275.392 1697.804,274.513 1694.133,272.767C1690.462,271.021 1686.7,267.875 1682.87,263.334L1681.291,272.767L1663.47,272.767L1663.471,272.767ZM1686.534,217.459C1686.701,231.796 1688.367,241.934 1691.513,247.867C1694.309,252.942 1698.58,255.467 1704.35,255.467C1715.187,255.467 1720.596,244.813 1720.596,223.496L1720.596,185.75C1720.596,166.525 1715.188,156.925 1704.35,156.925C1692.463,156.925 1686.533,169.592 1686.533,194.925L1686.533,217.458L1686.534,217.459Z" style="fill:rgb(217,203,191);"/>
        <path d="M1770.908,84.829L1793.966,84.829L1793.966,113.933L1770.908,113.933L1770.908,84.829ZM1770.908,139.612L1793.966,139.612L1793.966,272.766L1770.908,272.766L1770.908,139.612Z" style="fill:rgb(217,203,191);"/>
        <path d="M1815.192,230.3L1836.684,230.3C1836.851,238.175 1837.642,243.596 1839.038,246.558C1842.005,253.025 1847.771,256.254 1856.338,256.254C1868.738,256.254 1874.934,249.279 1874.934,235.287C1874.934,228.308 1873.109,223.404 1869.446,220.604C1867.159,218.862 1861.663,216.683 1852.934,214.054C1839.996,210.212 1831.438,206.033 1827.246,201.479C1821.484,195.367 1818.604,186.271 1818.604,174.208C1818.604,161.466 1822.092,151.929 1829.083,145.646C1835.2,140.046 1843.675,137.267 1854.504,137.267C1871.271,137.267 1882.542,143.296 1888.3,155.354C1890.742,160.591 1892.063,168.546 1892.238,179.2L1871.013,179.2C1871.013,163.987 1865.767,156.392 1855.288,156.392C1845.159,156.392 1840.088,162.509 1840.088,174.742C1840.088,182.434 1842.801,188.021 1848.213,191.517C1850.659,193.084 1857.734,195.542 1869.446,198.859C1879.388,201.655 1886.379,205.805 1890.4,211.301C1894.421,216.813 1896.433,224.901 1896.433,235.547C1896.433,250.926 1891.979,261.68 1883.066,267.793C1875.724,272.86 1866.558,275.401 1855.545,275.401C1846.116,275.401 1838.083,273.301 1831.437,269.105C1825.495,265.438 1821.224,260.547 1818.604,254.418C1816.5,249.181 1815.366,241.143 1815.191,230.301L1815.192,230.3Z" style="fill:rgb(217,203,191);"/>
        <path d="M1923.412,158.492L1911.625,158.492L1911.625,139.613L1923.412,139.613L1924.725,98.726L1946.471,98.726L1946.471,139.613L1964.825,139.613L1964.825,158.492L1946.471,158.492L1946.471,232.671C1946.471,240.884 1947.392,246.392 1949.225,249.179C1951.063,251.975 1954.775,253.375 1960.371,253.375L1965.083,253.375L1965.083,272.767L1958.27,272.767C1949.882,272.767 1943.453,272.075 1938.995,270.671C1934.549,269.279 1931.187,266.921 1928.92,263.6C1925.249,258.188 1923.412,247.179 1923.412,230.567L1923.412,158.492Z" style="fill:rgb(217,203,191);"/>
        <path d="M1987.608,272.767L1987.608,139.613L2005.17,139.613L2008.057,150.638C2010.836,145.909 2013.899,142.505 2017.215,140.417C2020.536,138.313 2024.732,137.267 2029.794,137.267C2036.257,137.267 2042.631,139.704 2048.923,144.6L2038.702,163.729C2034.156,159.187 2029.881,156.925 2025.86,156.925C2020.452,156.925 2016.556,160.896 2014.206,168.846C2011.852,176.8 2010.669,189.863 2010.669,208.033L2010.669,272.766L1987.606,272.766L1987.608,272.767Z" style="fill:rgb(217,203,191);"/>
        <path d="M2062.025,223.497L2062.025,188.896C2062.025,169.334 2065.604,155.613 2072.771,147.742C2079.229,140.759 2089.192,137.259 2102.646,137.259C2117.838,137.259 2128.583,141.905 2134.875,151.155C2140.467,159.188 2143.258,171.776 2143.258,188.897L2143.258,223.497C2143.258,243.068 2139.595,256.78 2132.254,264.643C2125.966,271.818 2116.095,275.393 2102.646,275.393C2087.271,275.393 2076.433,270.764 2070.15,261.505C2064.737,253.288 2062.025,240.626 2062.025,223.497ZM2085.088,225.596C2085.263,237.134 2086.571,245.125 2089.017,249.571C2091.459,254.025 2096,256.254 2102.646,256.254C2109.104,256.254 2113.65,253.941 2116.271,249.308C2118.892,244.691 2120.2,236.771 2120.2,225.596L2120.2,187.058C2120.2,175.696 2118.892,167.754 2116.271,163.204C2113.65,158.667 2109.104,156.392 2102.646,156.392C2096.183,156.392 2091.642,158.667 2089.017,163.204C2086.396,167.754 2085.088,175.696 2085.088,187.058L2085.088,225.596Z" style="fill:rgb(217,203,191);"/>
        <rect x="1550.542" y="0.096" width="18.246" height="299.904" style="fill:rgb(217,203,191);"/>
        <path d="M73.6,274.775C56.913,274.775 43.921,270.046 34.6,260.562C25.283,251.075 20.625,236.099 20.625,215.62L20.625,115.02L-0,115.02L-0,89.67L20.625,89.67L20.625,37.503L51.175,37.503L51.175,89.67L107.383,89.67L107.383,115.02L51.175,115.02L51.175,201.32C51.175,210.528 51.342,217.624 51.667,222.612C51.988,227.595 53.229,232.258 55.405,236.587C57.242,240.379 60.222,243.224 64.33,245.12C68.447,247.016 74.03,247.962 81.072,247.962C86.047,247.962 90.872,247.229 95.53,245.766C100.18,244.304 103.551,243.087 105.601,242.112L107.384,242.112L107.384,269.583C101.651,271.2 95.83,272.479 89.922,273.395C84.022,274.312 78.572,274.774 73.601,274.774L73.6,274.775Z" style="fill:rgb(217,203,191);"/>
        <path d="M272.625,271.2L242.079,271.2L242.079,167.846C242.079,159.504 241.671,151.729 240.866,144.521C240.045,137.321 238.504,131.554 236.237,127.217C233.745,122.667 230.279,119.284 225.837,117.063C221.395,114.842 215.325,113.725 207.637,113.725C200.054,113.725 192.233,115.763 184.158,119.817C176.087,123.879 168.208,129.167 160.525,135.663L160.525,271.201L129.975,271.201L129.975,18.33L160.525,18.33L160.525,109.826C169.621,101.705 178.604,95.476 187.492,91.143C196.367,86.805 205.738,84.639 215.6,84.639C233.471,84.639 247.446,90.518 257.521,102.268C267.592,114.031 272.625,131.064 272.625,153.381L272.625,271.202L272.625,271.2Z" style="fill:rgb(217,203,191);"/>
        <path d="M394.317,275.421C365.396,275.421 342.954,267.275 326.975,250.967C311,234.659 303.013,211.513 303.013,181.496C303.013,151.917 310.751,128.379 326.238,110.883C341.738,93.391 361.984,84.629 387.005,84.629C398.272,84.629 408.238,86.266 416.909,89.508C425.567,92.766 433.151,97.858 439.651,104.791C446.155,111.72 451.13,120.203 454.597,130.216C458.068,140.245 459.801,152.512 459.801,167.029L459.801,183.608L334.039,183.608C334.039,204.733 339.347,220.883 349.968,232.037C360.581,243.2 375.26,248.775 393.997,248.775C400.71,248.775 407.293,248.017 413.739,246.5C420.177,244.983 426.006,243.038 431.202,240.646C436.727,238.158 441.381,235.75 445.177,233.413C448.964,231.088 452.106,228.896 454.598,226.834L456.386,226.834L456.386,260.146C452.819,261.563 448.374,263.317 443.065,265.434C437.757,267.542 432.99,269.192 428.773,270.392C422.811,272.017 417.419,273.259 412.598,274.125C407.781,274.992 401.681,275.421 394.319,275.421L394.317,275.421ZM430.059,160.213C429.847,151.975 428.876,144.876 427.138,138.921C425.405,132.963 422.913,127.929 419.667,123.8C416.092,119.258 411.517,115.787 405.929,113.4C400.35,111.017 393.454,109.825 385.225,109.825C377.092,109.825 370.192,111.046 364.508,113.483C358.82,115.92 353.645,119.471 348.987,124.129C344.441,128.896 340.974,134.183 338.591,139.979C336.204,145.766 334.695,152.512 334.037,160.212L430.058,160.212L430.059,160.213Z" style="fill:rgb(217,203,191);"/>
        <path d="M784.422,271.2L742.663,271.2L665.98,174.992L629.259,174.992L629.259,271.2L597.092,271.2L597.092,29.225L659.479,29.225C673.342,29.225 684.958,29.979 694.329,31.5C703.7,33.008 712.604,36.538 721.054,42.058C729.508,47.475 736.192,54.462 741.121,63.025C746.05,71.583 748.513,82.2 748.513,94.875C748.513,112.646 744.013,127.492 735.03,139.4C726.038,151.317 713.801,160.154 698.309,165.892L784.422,271.2ZM714.884,97.308C714.884,90.271 713.638,84.016 711.146,78.541C708.654,73.079 704.809,68.608 699.613,65.137C695.059,62.108 689.75,59.97 683.688,58.712C677.625,57.474 670.092,56.845 661.1,56.845L629.258,56.845L629.258,148.178L657.529,148.178C666.733,148.178 675.021,147.37 682.391,145.741C689.749,144.116 696.037,140.762 701.233,135.662C705.891,131.112 709.333,125.7 711.55,119.416C713.771,113.133 714.883,105.762 714.883,97.308L714.884,97.308Z" style="fill:rgb(217,203,191);"/>
        <path d="M944.463,180.521C944.463,211.075 937.096,234.667 922.359,251.292C907.63,267.934 888.022,276.238 863.547,276.238C838.305,276.238 818.459,267.655 804.001,250.488C789.538,233.313 782.309,209.988 782.309,180.521C782.309,150.183 789.755,126.621 804.655,109.825C819.538,93.033 839.18,84.637 863.547,84.637C888.022,84.637 907.63,93.004 922.359,109.745C937.097,126.482 944.463,150.074 944.463,180.52L944.463,180.521ZM912.938,180.521C912.938,157.017 908.659,139.542 900.105,128.108C891.543,116.679 879.363,110.966 863.547,110.966C847.622,110.966 835.359,116.678 826.747,128.108C818.13,139.541 813.835,157.016 813.835,180.521C813.835,203.275 818.131,220.533 826.747,232.279C835.359,244.033 847.622,249.916 863.547,249.916C879.255,249.916 891.414,244.145 900.022,232.608C908.635,221.07 912.939,203.704 912.939,180.521L912.938,180.521Z" style="fill:rgb(217,203,191);"/>
        <path d="M1291.354,271.2L1260.812,271.2L1260.812,252.679C1256.037,256.683 1251.925,259.983 1248.462,262.587C1244.991,265.187 1240.929,267.579 1236.274,269.741C1231.937,271.795 1227.445,273.395 1222.791,274.533C1218.129,275.675 1212.716,276.237 1206.537,276.237C1196.683,276.237 1187.554,274.179 1179.162,270.062C1170.766,265.95 1163.645,259.933 1157.795,252.02C1151.841,244.003 1147.241,234.124 1143.987,222.37C1140.737,210.608 1139.116,197.099 1139.116,181.824C1139.116,165.891 1141.17,152.103 1145.283,140.457C1149.404,128.815 1155.091,118.653 1162.35,109.986C1168.954,102.082 1176.942,95.878 1186.317,91.382C1195.68,86.886 1205.513,84.636 1215.809,84.636C1224.896,84.636 1232.809,85.636 1239.521,87.648C1246.238,89.656 1253.334,92.765 1260.813,96.99L1260.813,18.328L1291.355,18.328L1291.355,271.199L1291.354,271.2ZM1260.812,226.996L1260.812,122.342C1253.229,118.655 1246.429,116.117 1240.416,114.704C1234.403,113.296 1227.878,112.583 1220.833,112.583C1205.133,112.583 1192.837,118.47 1183.958,130.216C1175.075,141.983 1170.633,158.962 1170.633,181.166C1170.633,202.512 1174.046,218.845 1180.866,230.17C1187.691,241.487 1198.633,247.149 1213.687,247.149C1221.704,247.149 1229.774,245.336 1237.9,241.703C1246.025,238.082 1253.658,233.174 1260.812,226.995L1260.812,226.996Z" style="fill:rgb(217,203,191);"/>
        <path d="M1384.613,275.587C1372.48,275.587 1361.134,273.962 1350.575,270.716C1340.012,267.466 1331.262,263.995 1324.333,260.316L1324.333,226.02L1325.954,226.02C1328.558,228.082 1331.617,230.357 1335.137,232.845C1338.658,235.345 1343.345,237.941 1349.195,240.645C1354.391,243.037 1360.103,245.141 1366.337,246.987C1372.558,248.829 1379.033,249.749 1385.745,249.749C1390.624,249.749 1395.82,249.182 1401.345,248.045C1406.866,246.899 1410.987,245.47 1413.691,243.737C1417.487,241.241 1420.22,238.595 1421.903,235.775C1423.578,232.962 1424.42,228.733 1424.42,223.096C1424.42,215.842 1422.445,210.367 1418.491,206.688C1414.533,203.009 1407.52,199.913 1397.445,197.421C1393.553,196.442 1388.453,195.309 1382.174,194.008C1375.895,192.704 1370.091,191.308 1364.791,189.783C1350.929,185.779 1340.849,179.575 1334.57,171.175C1328.291,162.775 1325.145,152.621 1325.145,140.704C1325.145,124.354 1331.32,111.016 1343.67,100.725C1356.02,90.438 1372.424,85.288 1392.899,85.288C1402.974,85.288 1413.091,86.534 1423.278,89.03C1433.457,91.518 1442.016,94.655 1448.953,98.451L1448.953,131.114L1447.324,131.114C1439.528,124.939 1430.836,120.064 1421.249,116.493C1411.666,112.914 1401.995,111.122 1392.253,111.122C1382.174,111.122 1373.67,113.243 1366.741,117.464C1359.808,121.689 1356.341,128.093 1356.341,136.643C1356.341,144.235 1358.399,149.893 1362.516,153.63C1366.628,157.368 1373.233,160.43 1382.337,162.805C1386.887,163.997 1391.95,165.167 1397.529,166.301C1403.104,167.439 1408.987,168.764 1415.154,170.28C1428.587,173.642 1438.687,179.222 1445.462,187.018C1452.229,194.818 1455.612,205.447 1455.612,218.872C1455.612,226.672 1454.066,234.072 1450.983,241.051C1447.891,248.047 1443.375,254.03 1437.412,259.018C1430.92,264.435 1423.579,268.551 1415.4,271.36C1407.221,274.181 1396.962,275.589 1384.612,275.589L1384.613,275.587Z" style="fill:rgb(217,203,191);"/>
        <g transform="matrix(0.803612,0,0,0.973276,-713.826872,7.35111)">
            <g transform="matrix(1,0,0,1,2085.245,270.384)">
                <text x="0px" y="0px" style="font-family:'Avenir-Medium', 'Avenir';font-weight:500;font-size:390.866px;fill:rgb(217,203,191);">a</text>
            </g>
        </g>
    </g>
</svg>
