<?xml version="1.0" encoding="UTF-8" standalone="no"?><!DOCTYPE svg PUBLIC "-//W3C//DTD SVG 1.1//EN" "http://www.w3.org/Graphics/SVG/1.1/DTD/svg11.dtd"><svg width="100%" height="100%" viewBox="0 0 2250 300" version="1.1" xmlns="http://www.w3.org/2000/svg" xmlns:xlink="http://www.w3.org/1999/xlink" xml:space="preserve" xmlns:serif="http://www.serif.com/" style="fill-rule:evenodd;clip-rule:evenodd;stroke-linejoin:round;stroke-miterlimit:2;"><g><path d="M1686.388,272.767l0,-187.142l23.063,-0l0,61.329c3.317,-3.483 6.679,-5.979 10.083,-7.467c3.404,-1.479 7.733,-2.221 12.983,-2.221c12.396,0 21.392,4.546 26.979,13.621c4.721,8.217 7.083,20.271 7.083,36.171l0,33.825c0,20.258 -3.238,34.675 -9.704,43.242c-5.588,7.508 -14.138,11.267 -25.671,11.267c-5.771,0 -10.483,-0.879 -14.154,-2.625c-3.671,-1.746 -7.433,-4.892 -11.263,-9.433l-1.579,9.433l-17.821,0Zm23.063,-55.308c0.167,14.337 1.833,24.475 4.979,30.408c2.796,5.075 7.067,7.6 12.837,7.6c10.837,0 16.246,-10.654 16.246,-31.971l0,-37.746c0,-19.225 -5.408,-28.825 -16.246,-28.825c-11.887,0 -17.817,12.667 -17.817,38l0,22.533Z" style="fill:#fff;"/><path d="M1793.825,84.829l23.058,0l0,29.104l-23.058,0l0,-29.104Zm0,54.783l23.058,0l0,133.154l-23.058,0l0,-133.154Z" style="fill:#fff;"/><path d="M1838.108,230.3l21.492,0c0.167,7.875 0.958,13.296 2.354,16.258c2.967,6.467 8.733,9.696 17.3,9.696c12.4,0 18.596,-6.975 18.596,-20.967c0,-6.979 -1.825,-11.883 -5.488,-14.683c-2.287,-1.742 -7.783,-3.921 -16.512,-6.55c-12.938,-3.842 -21.496,-8.021 -25.688,-12.575c-5.762,-6.112 -8.642,-15.208 -8.642,-27.271c0,-12.742 3.488,-22.279 10.479,-28.562c6.117,-5.6 14.592,-8.379 25.421,-8.379c16.767,0 28.038,6.029 33.796,18.087c2.442,5.237 3.763,13.192 3.938,23.846l-21.225,0c0,-15.213 -5.246,-22.808 -15.725,-22.808c-10.129,0 -15.2,6.117 -15.2,18.35c0,7.692 2.713,13.279 8.125,16.775c2.446,1.567 9.521,4.025 21.233,7.342c9.942,2.796 16.933,6.946 20.954,12.442c4.021,5.512 6.033,13.6 6.033,24.246c0,15.379 -4.454,26.133 -13.367,32.246c-7.342,5.067 -16.508,7.608 -27.521,7.608c-9.429,0 -17.462,-2.1 -24.108,-6.296c-5.942,-3.667 -10.213,-8.558 -12.833,-14.687c-2.104,-5.237 -3.238,-13.275 -3.413,-24.117Z" style="fill:#fff;"/><path d="M1946.329,158.492l-11.787,0l0,-18.879l11.787,0l1.313,-40.887l21.746,0l0,40.887l18.354,0l0,18.879l-18.354,0l0,74.179c0,8.213 0.921,13.721 2.754,16.508c1.838,2.796 5.55,4.196 11.146,4.196l4.712,0l0,19.392l-6.813,0c-8.388,0 -14.817,-0.692 -19.275,-2.096c-4.446,-1.392 -7.808,-3.75 -10.075,-7.071c-3.671,-5.412 -5.508,-16.421 -5.508,-33.033l0,-72.075Z" style="fill:#fff;"/><path d="M2010.525,272.767l0,-133.154l17.562,0l2.887,11.025c2.779,-4.729 5.842,-8.133 9.158,-10.221c3.321,-2.104 7.517,-3.15 12.579,-3.15c6.463,0 12.837,2.437 19.129,7.333l-10.221,19.129c-4.546,-4.542 -8.821,-6.804 -12.842,-6.804c-5.408,0 -9.304,3.971 -11.654,11.921c-2.354,7.954 -3.537,21.017 -3.537,39.187l0,64.733l-23.063,0Z" style="fill:#fff;"/><path d="M2084.942,223.496l0,-34.6c0,-19.562 3.579,-33.283 10.746,-41.154c6.458,-6.983 16.421,-10.483 29.875,-10.483c15.192,0 25.937,4.646 32.229,13.896c5.592,8.033 8.383,20.621 8.383,37.742l0,34.6c0,19.571 -3.663,33.283 -11.004,41.146c-6.288,7.175 -16.159,10.75 -29.608,10.75c-15.375,0 -26.213,-4.629 -32.496,-13.888c-5.413,-8.217 -8.125,-20.879 -8.125,-38.008Zm23.063,2.1c0.175,11.538 1.483,19.529 3.929,23.975c2.442,4.454 6.983,6.683 13.629,6.683c6.458,0 11.004,-2.313 13.625,-6.946c2.621,-4.617 3.929,-12.537 3.929,-23.712l0,-38.538c0,-11.362 -1.308,-19.304 -3.929,-23.854c-2.621,-4.537 -7.167,-6.812 -13.625,-6.812c-6.463,0 -11.004,2.275 -13.629,6.812c-2.621,4.55 -3.929,12.492 -3.929,23.854l0,38.538Z" style="fill:#fff;"/><rect x="1573.458" y="0.096" width="18.246" height="299.904" style="fill:#fff;"/><path d="M73.6,274.775c-16.687,0 -29.679,-4.729 -39,-14.213c-9.317,-9.487 -13.975,-24.463 -13.975,-44.942l0,-100.6l-20.625,0l0,-25.35l20.625,0l0,-52.167l30.55,0l0,52.167l56.208,0l0,25.35l-56.208,0l0,86.3c0,9.208 0.167,16.304 0.492,21.292c0.321,4.983 1.562,9.646 3.738,13.975c1.837,3.792 4.817,6.637 8.925,8.533c4.117,1.896 9.7,2.842 16.742,2.842c4.975,0 9.8,-0.733 14.458,-2.196c4.65,-1.462 8.021,-2.679 10.071,-3.654l1.783,0l0,27.471c-5.733,1.617 -11.554,2.896 -17.462,3.812c-5.9,0.917 -11.35,1.379 -16.321,1.379Z" style="fill:#fff;"/><path d="M272.625,271.2l-30.546,0l0,-103.354c0,-8.342 -0.408,-16.117 -1.213,-23.325c-0.821,-7.2 -2.362,-12.967 -4.629,-17.304c-2.492,-4.55 -5.958,-7.933 -10.4,-10.154c-4.442,-2.221 -10.512,-3.338 -18.2,-3.338c-7.583,0 -15.404,2.038 -23.479,6.092c-8.071,4.062 -15.95,9.35 -23.633,15.846l0,135.538l-30.55,0l0,-252.871l30.55,-0l0,91.496c9.096,-8.121 18.079,-14.35 26.967,-18.683c8.875,-4.338 18.246,-6.504 28.108,-6.504c17.871,0 31.846,5.879 41.921,17.629c10.071,11.763 15.104,28.796 15.104,51.113l0,117.821Z" style="fill:#fff;"/><path d="M394.317,275.421c-28.921,0 -51.363,-8.146 -67.342,-24.454c-15.975,-16.308 -23.962,-39.454 -23.962,-69.471c0,-29.579 7.738,-53.117 23.225,-70.613c15.5,-17.492 35.746,-26.254 60.767,-26.254c11.267,0 21.233,1.637 29.904,4.879c8.658,3.258 16.242,8.35 22.742,15.283c6.504,6.929 11.479,15.412 14.946,25.425c3.471,10.029 5.204,22.296 5.204,36.813l0,16.579l-125.762,0c0,21.125 5.308,37.275 15.929,48.429c10.613,11.163 25.292,16.738 44.029,16.738c6.713,0 13.296,-0.758 19.742,-2.275c6.438,-1.517 12.267,-3.462 17.463,-5.854c5.525,-2.488 10.179,-4.896 13.975,-7.233c3.787,-2.325 6.929,-4.517 9.421,-6.579l1.788,0l0,33.312c-3.567,1.417 -8.012,3.171 -13.321,5.288c-5.308,2.108 -10.075,3.758 -14.292,4.958c-5.962,1.625 -11.354,2.867 -16.175,3.733c-4.817,0.867 -10.917,1.296 -18.279,1.296Zm35.742,-115.208c-0.212,-8.238 -1.183,-15.337 -2.921,-21.292c-1.733,-5.958 -4.225,-10.992 -7.471,-15.121c-3.575,-4.542 -8.15,-8.013 -13.738,-10.4c-5.579,-2.383 -12.475,-3.575 -20.704,-3.575c-8.133,0 -15.033,1.221 -20.717,3.658c-5.688,2.437 -10.863,5.988 -15.521,10.646c-4.546,4.767 -8.013,10.054 -10.396,15.85c-2.387,5.787 -3.896,12.533 -4.554,20.233l96.021,0Z" style="fill:#fff;"/><path d="M784.421,271.2l-41.758,0l-76.683,-96.208l-36.721,0l0,96.208l-32.167,0l0,-241.975l62.387,-0c13.863,0 25.479,0.754 34.85,2.275c9.371,1.508 18.275,5.038 26.725,10.558c8.454,5.417 15.138,12.404 20.067,20.967c4.929,8.558 7.392,19.175 7.392,31.85c0,17.771 -4.5,32.617 -13.483,44.525c-8.992,11.917 -21.229,20.754 -36.721,26.492l86.113,105.308Zm-69.537,-173.892c0,-7.037 -1.246,-13.292 -3.738,-18.767c-2.492,-5.462 -6.337,-9.933 -11.533,-13.404c-4.554,-3.029 -9.863,-5.167 -15.925,-6.425c-6.063,-1.238 -13.596,-1.867 -22.588,-1.867l-31.842,0l0,91.333l28.271,0c9.204,0 17.492,-0.808 24.862,-2.437c7.358,-1.625 13.646,-4.979 18.842,-10.079c4.658,-4.55 8.1,-9.962 10.317,-16.246c2.221,-6.283 3.333,-13.654 3.333,-22.108Z" style="fill:#fff;"/><path d="M944.463,180.521c0,30.554 -7.367,54.146 -22.104,70.771c-14.729,16.642 -34.337,24.946 -58.812,24.946c-25.242,0 -45.088,-8.583 -59.546,-25.75c-14.463,-17.175 -21.692,-40.5 -21.692,-69.967c0,-30.338 7.446,-53.9 22.346,-70.696c14.883,-16.792 34.525,-25.188 58.892,-25.188c24.475,0 44.083,8.367 58.812,25.108c14.738,16.737 22.104,40.329 22.104,70.775Zm-31.525,0c0,-23.504 -4.279,-40.979 -12.833,-52.413c-8.562,-11.429 -20.742,-17.142 -36.558,-17.142c-15.925,0 -28.188,5.712 -36.8,17.142c-8.617,11.433 -12.912,28.908 -12.912,52.413c0,22.754 4.296,40.012 12.912,51.758c8.612,11.754 20.875,17.637 36.8,17.637c15.708,0 27.867,-5.771 36.475,-17.308c8.613,-11.538 12.917,-28.904 12.917,-52.087Z" style="fill:#fff;"/><path d="M1134.046,180.521c0,30.554 -7.367,54.146 -22.104,70.771c-14.729,16.642 -34.337,24.946 -58.812,24.946c-25.242,0 -45.088,-8.583 -59.546,-25.75c-14.463,-17.175 -21.692,-40.5 -21.692,-69.967c0,-30.338 7.446,-53.9 22.346,-70.696c14.883,-16.792 34.525,-25.188 58.892,-25.188c24.475,0 44.083,8.367 58.812,25.108c14.738,16.737 22.104,40.329 22.104,70.775Zm-31.525,0c0,-23.504 -4.279,-40.979 -12.833,-52.413c-8.562,-11.429 -20.742,-17.142 -36.558,-17.142c-15.925,0 -28.188,5.712 -36.8,17.142c-8.617,11.433 -12.912,28.908 -12.912,52.413c0,22.754 4.296,40.012 12.912,51.758c8.612,11.754 20.875,17.637 36.8,17.637c15.708,0 27.867,-5.771 36.475,-17.308c8.613,-11.538 12.917,-28.904 12.917,-52.087Z" style="fill:#fff;"/><path d="M1314.271,271.2l-30.542,0l0,-18.521c-4.775,4.004 -8.887,7.304 -12.35,9.908c-3.471,2.6 -7.533,4.992 -12.188,7.154c-4.337,2.054 -8.829,3.654 -13.483,4.792c-4.662,1.142 -10.075,1.704 -16.254,1.704c-9.854,0 -18.983,-2.058 -27.375,-6.175c-8.396,-4.112 -15.517,-10.129 -21.367,-18.042c-5.954,-8.017 -10.554,-17.896 -13.808,-29.65c-3.25,-11.762 -4.871,-25.271 -4.871,-40.546c0,-15.933 2.054,-29.721 6.167,-41.367c4.121,-11.642 9.808,-21.804 17.067,-30.471c6.604,-7.904 14.592,-14.108 23.967,-18.604c9.363,-4.496 19.196,-6.746 29.492,-6.746c9.087,0 17,1 23.712,3.012c6.717,2.008 13.813,5.117 21.292,9.342l0,-78.662l30.542,-0l0,252.871Zm-30.542,-44.204l0,-104.654c-7.583,-3.687 -14.383,-6.225 -20.396,-7.638c-6.013,-1.408 -12.538,-2.121 -19.583,-2.121c-15.7,0 -27.996,5.887 -36.875,17.633c-8.883,11.767 -13.325,28.746 -13.325,50.95c0,21.346 3.413,37.679 10.233,49.004c6.825,11.317 17.767,16.979 32.821,16.979c8.017,0 16.087,-1.813 24.213,-5.446c8.125,-3.621 15.758,-8.529 22.912,-14.708Z" style="fill:#fff;"/><path d="M1407.529,275.587c-12.133,0 -23.479,-1.625 -34.038,-4.871c-10.563,-3.25 -19.313,-6.721 -26.242,-10.4l0,-34.296l1.621,0c2.604,2.062 5.663,4.337 9.183,6.825c3.521,2.5 8.208,5.096 14.058,7.8c5.196,2.392 10.908,4.496 17.142,6.342c6.221,1.842 12.696,2.762 19.408,2.762c4.879,0 10.075,-0.567 15.6,-1.704c5.521,-1.146 9.642,-2.575 12.346,-4.308c3.796,-2.496 6.529,-5.142 8.212,-7.962c1.675,-2.813 2.517,-7.042 2.517,-12.679c0,-7.254 -1.975,-12.729 -5.929,-16.408c-3.958,-3.679 -10.971,-6.775 -21.046,-9.267c-3.892,-0.979 -8.992,-2.112 -15.271,-3.413c-6.279,-1.304 -12.083,-2.7 -17.383,-4.225c-13.862,-4.004 -23.942,-10.208 -30.221,-18.608c-6.279,-8.4 -9.425,-18.554 -9.425,-30.471c0,-16.35 6.175,-29.688 18.525,-39.979c12.35,-10.287 28.754,-15.437 49.229,-15.437c10.075,0 20.192,1.246 30.379,3.742c10.179,2.488 18.738,5.625 25.675,9.421l0,32.663l-1.629,0c-7.796,-6.175 -16.488,-11.05 -26.075,-14.621c-9.583,-3.579 -19.254,-5.371 -28.996,-5.371c-10.079,0 -18.583,2.121 -25.512,6.342c-6.933,4.225 -10.4,10.629 -10.4,19.179c0,7.592 2.058,13.25 6.175,16.987c4.112,3.738 10.717,6.8 19.821,9.175c4.55,1.192 9.613,2.362 15.192,3.496c5.575,1.138 11.458,2.463 17.625,3.979c13.433,3.362 23.533,8.942 30.308,16.738c6.767,7.8 10.15,18.429 10.15,31.854c0,7.8 -1.546,15.2 -4.629,22.179c-3.092,6.996 -7.608,12.979 -13.571,17.967c-6.492,5.417 -13.833,9.533 -22.012,12.342c-8.179,2.821 -18.438,4.229 -30.788,4.229Z" style="fill:#fff;"/></g></svg>